<svg width="26" height="28" viewBox="0 0 26 28" fill="none" xmlns="http://www.w3.org/2000/svg">
<path d="M19.2579 11.6605L19.2196 11.6284L19.1873 11.6666L10.0873 22.4525L5.35371 23.5776C5.25557 23.6009 5.16278 23.523 5.16904 23.4226L5.47114 18.579L14.5711 7.79313L14.6034 7.75491L14.5651 7.72277L13.3898 6.73662C13.0881 6.48348 13.0494 6.03425 13.3034 5.73324C13.5574 5.43224 14.0078 5.39344 14.3095 5.64659L16.8342 7.76505L16.8725 7.79719L16.9047 7.75897L17.577 6.96208L18.6556 5.68366L18.6685 5.6684L18.6673 5.64849L18.5812 4.2252L21.6345 4.07551L22.0088 7.10178L20.6049 7.27484L20.5854 7.27724L20.5727 7.29225L19.5265 8.5323L18.8218 9.36757L18.7895 9.40579L18.8278 9.43792L21.3528 11.5566C21.6545 11.8098 21.6932 12.259 21.4392 12.56C21.1852 12.861 20.7348 12.8998 20.4331 12.6467L19.2579 11.6605Z" fill="#E96464" stroke="#6C6B6B" stroke-width="0.1"/>
<path d="M19.5537 20.198V17.099H18.2419C18.1527 17.099 18.1082 16.9911 18.1713 16.9282L21.0368 14.0704C21.0758 14.0315 21.139 14.0315 21.178 14.0704L24.0436 16.9282C24.1067 16.9911 24.0621 17.099 23.973 17.099H22.6611V20.198H19.5537Z" fill="white"/>
</svg>
