<svg width="443" height="9" viewBox="0 0 443 9" fill="none" xmlns="http://www.w3.org/2000/svg">
<path fill-rule="evenodd" clip-rule="evenodd" d="M434.5 0L435.207 0.70726L437.207 2.70754L435.793 4.12165L434.5 2.82863L433.207 4.12166L432.914 4.41459H432.5L9.94781 4.41459L9.53473 4.41459L9.24207 4.12306L7.94142 2.82742L6.64716 4.12169L5.23294 2.70748L7.23295 0.707456L7.93869 0.00170255L8.6458 0.706091L10.3609 2.41459L432.086 2.41459L433.793 0.707252L434.5 0ZM434.832 5.67023L436.332 4.32358L437.668 5.8118L436.188 7.14045L435.207 8.12145L434.5 8.82856L433.793 8.12145L431.793 6.12145L433.207 4.70724L434.5 6.00014L434.793 5.70723L434.812 5.68821L434.832 5.67023ZM7.94141 6.00173L5.64707 3.70747L4.23288 5.12171L7.23296 8.12168L7.93869 8.82739L8.64578 8.12304L10.6535 6.12306L9.24207 4.7061L7.94141 6.00173ZM2.21294 1.06768L4.2385 3.28061L2.02557 5.30618L0 3.09324L2.21294 1.06768ZM442.238 4.28061L440.213 2.06768L438 4.09324L440.026 6.30618L442.238 4.28061Z" fill="#FFC300"/>
</svg>
