<svg width="20" height="20" viewBox="0 0 20 20" fill="none" xmlns="http://www.w3.org/2000/svg">
<path d="M13.0316 14.4844C13.386 14.1614 13.8756 14 14.5007 14C14.6736 14 14.8502 14.028 15.0301 14.084C15.2101 14.14 15.3775 14.2155 15.5323 14.3106C15.6872 14.4056 15.8203 14.4948 15.932 14.5781C16.0436 14.6615 16.1496 14.75 16.25 14.8437C16.3505 14.75 16.4565 14.6615 16.5681 14.5781C16.6798 14.4948 16.8129 14.4056 16.9678 14.3106C17.1227 14.2155 17.2901 14.14 17.4701 14.084C17.65 14.028 17.8265 14 17.9995 14C18.6245 14 19.1141 14.1615 19.4685 14.4844C19.8228 14.8073 20 15.2552 20 15.8281C20 16.0026 19.9672 16.1823 19.9016 16.3672C19.8361 16.5521 19.7614 16.7096 19.6777 16.8398C19.594 16.97 19.4991 17.097 19.3931 17.2207C19.2871 17.3444 19.2096 17.4296 19.1608 17.4765C19.112 17.5233 19.0736 17.5572 19.0457 17.578L16.4342 19.9296C16.384 19.9765 16.3226 20 16.2501 20C16.1775 20 16.1161 19.9765 16.0659 19.9297L13.4585 17.5859C12.8195 16.9896 12.5001 16.4036 12.5001 15.8281C12.5001 15.2552 12.6773 14.8073 13.0316 14.4844Z" fill="white"/>
<path d="M0 7.28778C0 7.01164 0.223858 6.78778 0.5 6.78778H19.5C19.7761 6.78778 20 7.01164 20 7.28778V11.3788C20 11.6549 19.7761 11.8788 19.5 11.8788H0.500001C0.223859 11.8788 0 11.6549 0 11.3788V7.28778Z" fill="#C0E966"/>
<path d="M12.2273 0C12.5034 0 12.7273 0.223858 12.7273 0.5L12.7273 18.1668C12.7273 18.4429 12.5034 18.6668 12.2273 18.6668H7.77276C7.49662 18.6668 7.27276 18.4429 7.27276 18.1668L7.27276 0.5C7.27276 0.223858 7.49662 0 7.77276 0L12.2273 0Z" fill="#C0E966"/>
</svg>
