<svg width="47" height="47" viewBox="0 0 47 47" fill="none" xmlns="http://www.w3.org/2000/svg">
<path d="M9.68668 9.68683L20.4052 15.252C22.48 16.3293 24.7277 17.0345 27.0461 17.3355L37.9489 18.7512C38.0312 18.7619 38.0654 18.8624 38.0067 18.9211L28.4638 28.464L9.68668 9.68683Z" fill="#FEFFFB"/>
<path d="M9.68668 9.68683L20.4052 15.252C22.48 16.3293 24.7277 17.0345 27.0461 17.3355L37.9489 18.7512C38.0312 18.7619 38.0654 18.8624 38.0067 18.9211L28.4638 28.464L9.68668 9.68683Z" fill="#FEFFFB"/>
<path d="M9.68668 9.68683L20.4052 15.252C22.48 16.3293 24.7277 17.0345 27.0461 17.3355L37.9489 18.7512C38.0312 18.7619 38.0654 18.8624 38.0067 18.9211L28.4638 28.464L9.68668 9.68683Z" fill="#FEFFFB"/>
<path d="M16.9958 26.8961C16.694 24.9895 16.1178 23.1367 15.2852 21.3953L9.68662 9.68649L28.4638 28.4636L18.9159 38.0115C18.8582 38.0692 18.7592 38.0371 18.7465 37.9564L16.9958 26.8961Z" fill="#F2F2DA"/>
<path d="M36.6373 21.0984L37.8274 18.9828L32.8142 24.0963C32.3035 24.6172 31.5497 24.8187 30.8472 24.6221L22.2047 22.2042L24.6299 30.8722C24.8226 31.5611 24.6327 32.3004 24.1319 32.8112L19.205 37.8366L21.1414 36.7201C25.8832 33.9861 31.7144 33.9514 36.4884 36.6287C36.5795 36.6798 36.6803 36.5788 36.6292 36.4877C33.9489 31.7084 33.9507 25.8742 36.6373 21.0984Z" fill="#FFBE04"/>
<path d="M25.8219 31.1049L31.1055 25.8213L30.2407 26.0428C28.9957 26.3615 27.6757 26.1887 26.5548 25.56L24.291 24.2904L25.5606 26.5543C26.1892 27.6752 26.3621 28.9952 26.0433 30.2402L25.8219 31.1049Z" fill="#FDDF03"/>
</svg>
