<svg width="21" height="18" viewBox="0 0 21 18" fill="none" xmlns="http://www.w3.org/2000/svg">
<path d="M10.4971 17.1263H10.9106C13.2321 17.1263 15.1154 15.247 15.1203 12.9255C15.1212 12.5232 15.4065 12.1777 15.8014 12.1008L19.2513 11.4295C20.4082 11.2043 21.1205 10.0327 20.788 8.90197L19.1005 3.16445C18.9753 2.73887 18.5847 2.44662 18.1411 2.44662H17.5976C16.9643 2.44662 16.4904 3.02793 16.6182 3.64827L17.3826 7.36151C17.5104 7.98185 17.0365 8.56316 16.4032 8.56316H15.1218H12.5929V6.99034L12.8407 6.79548C13.8519 6.00026 14.3448 4.70641 14.1273 3.4385C13.9536 2.42633 13.3397 1.53625 12.4524 1.01911C11.3719 0.38929 10.0361 0.389289 8.95548 1.01911C8.06823 1.53625 7.45427 2.42633 7.28062 3.4385C7.06308 4.70641 7.55602 6.00026 8.56724 6.79548L8.81502 6.99034V8.56316H5.07009C4.44195 8.56316 3.96934 7.99084 4.08813 7.37404L4.80813 3.63574C4.92693 3.01894 4.45432 2.44662 3.82618 2.44662H3.26682C2.82321 2.44662 2.43262 2.73887 2.30745 3.16445L0.620136 8.90132C0.287505 10.0323 1.00022 11.2041 2.15743 11.4289L5.61655 12.101C6.01137 12.1777 6.29644 12.5235 6.29644 12.9257C6.29644 15.2456 8.17713 17.1263 10.4971 17.1263Z" fill="#FFCC33"/>
</svg>
